<svg width="46" height="46" viewBox="0 0 46 46" fill="none" xmlns="http://www.w3.org/2000/svg">
<path d="M1.33691 13.1412C1.33691 6.51382 6.7095 1.14124 13.3369 1.14124H32.3369C38.9643 1.14124 44.3369 6.51382 44.3369 13.1412V32.1412C44.3369 38.7687 38.9643 44.1412 32.3369 44.1412H13.3369C6.7095 44.1412 1.33691 38.7687 1.33691 32.1412V13.1412Z" fill="#F3E8DF"/>
<path d="M23.9569 1.20949L23.8679 0.213469L23.9569 1.20949ZM25.7269 1.05122L25.816 2.04725L25.7269 1.05122ZM30.9496 1.55339L31.1375 0.571199L30.9496 1.55339ZM32.6759 1.88361L32.4881 2.86581L32.6759 1.88361ZM35.8605 2.93622L35.4166 3.83229L35.8605 2.93622ZM38.7769 4.38098L39.2208 3.48491L38.7769 4.38098ZM41.3989 6.46314L42.1586 5.8129L41.3989 6.46314ZM44.6976 12.3496L43.7033 12.2436L44.6976 12.3496ZM44.3123 15.9638L45.3067 16.0698L44.3123 15.9638ZM43.9802 19.5409L44.9771 19.6195L43.9802 19.5409ZM43.7012 23.0809L42.7043 23.0024L43.7012 23.0809ZM43.9565 26.6209L42.9805 26.8387L43.9565 26.6209ZM44.3514 28.3909L45.3274 28.1732L44.3514 28.3909ZM44.7463 30.1609L43.7703 30.3787L44.7463 30.1609ZM44.469 33.6132L45.3976 33.9842L44.469 33.6132ZM43.1247 36.9778L44.0533 37.3488L43.1247 36.9778ZM41.0855 39.7156L40.4744 38.9241L41.0855 39.7156ZM38.3514 41.8268L38.9626 42.6183L38.3514 41.8268ZM35.2777 43.0733L35.1664 42.0795L35.2777 43.0733ZM31.8642 43.4554L31.9755 44.4492L31.8642 43.4554ZM28.3875 43.9217L28.2338 42.9336L28.3875 43.9217ZM24.8475 44.4724L25.0012 45.4605L24.8475 44.4724ZM21.3075 44.6969L21.2788 45.6965L21.3075 44.6969ZM17.7675 44.5952L17.7962 43.5956L17.7675 44.5952ZM14.2731 44.1885L14.071 45.1679L14.2731 44.1885ZM12.5487 43.8327L12.7508 42.8533L12.5487 43.8327ZM10.8243 43.4769L10.6222 44.4562L10.8243 43.4769ZM7.84331 42.0033L7.17869 42.7505L7.84331 42.0033ZM5.33007 39.7678L4.66546 40.515L5.33007 39.7678ZM3.28808 37.093L2.39524 37.5434L3.28808 37.093ZM1.71733 33.9791L0.824487 34.4294L1.71733 33.9791ZM2.01411 20.0221L1.02487 19.8758L2.01411 20.0221ZM1.81493 12.9685L0.818712 13.0554L1.81493 12.9685ZM3.82645 6.46692L2.91684 6.05145L3.82645 6.46692ZM11.2406 1.0564L11.281 0.0572197L11.2406 1.0564ZM12.6381 1.11296L12.5977 2.11214L12.6381 1.11296ZM15.1069 1.23744L15.0526 2.23596L15.1069 1.23744ZM16.8769 1.33364L16.8226 2.33216L18.5926 2.42837L18.6469 1.42984L18.7012 0.431313L16.9312 0.335112L16.8769 1.33364ZM18.6469 1.42984L18.5926 2.42837C19.8205 2.4951 21.0484 2.47356 22.276 2.36379L22.1869 1.36777L22.0979 0.371742C20.9654 0.473006 19.8333 0.492844 18.7012 0.431313L18.6469 1.42984ZM22.1869 1.36777L22.276 2.36379L24.046 2.20552L23.9569 1.20949L23.8679 0.213469L22.0979 0.371742L22.1869 1.36777ZM23.9569 1.20949L24.046 2.20552L25.816 2.04725L25.7269 1.05122L25.6378 0.0551955L23.8679 0.213469L23.9569 1.20949ZM25.7269 1.05122L25.816 2.04725C26.9045 1.94991 27.9767 2.00286 29.0354 2.20536L29.2233 1.22317L29.4111 0.240978C28.168 0.00318599 26.9093 -0.0584996 25.6378 0.0551955L25.7269 1.05122ZM29.2233 1.22317L29.0354 2.20536L30.7617 2.53558L30.9496 1.55339L31.1375 0.571199L29.4111 0.240978L29.2233 1.22317ZM30.9496 1.55339L30.7617 2.53558L32.4881 2.86581L32.6759 1.88361L32.8638 0.901421L31.1375 0.571199L30.9496 1.55339ZM32.6759 1.88361L32.4881 2.86581C33.5572 3.07031 34.5317 3.39393 35.4166 3.83229L35.8605 2.93622L36.3044 2.04014C35.245 1.51533 34.0965 1.13721 32.8638 0.901421L32.6759 1.88361ZM35.8605 2.93622L35.4166 3.83229L36.8748 4.55467L37.3187 3.6586L37.7626 2.76253L36.3044 2.04014L35.8605 2.93622ZM37.3187 3.6586L36.8748 4.55467L38.333 5.27705L38.7769 4.38098L39.2208 3.48491L37.7626 2.76253L37.3187 3.6586ZM38.7769 4.38098L38.333 5.27705C39.1728 5.69309 39.9421 6.29897 40.6392 7.11337L41.3989 6.46314L42.1586 5.8129C41.3039 4.81427 40.3253 4.03205 39.2208 3.48491L38.7769 4.38098ZM41.3989 6.46314L40.6392 7.11337L41.803 8.47315L42.5627 7.82291L43.3224 7.17267L42.1586 5.8129L41.3989 6.46314ZM42.5627 7.82291L41.803 8.47315L42.9667 9.83292L43.7265 9.18268L44.4862 8.53245L43.3224 7.17267L42.5627 7.82291ZM43.7265 9.18268L42.9667 9.83292C43.5606 10.5268 43.803 11.3077 43.7033 12.2436L44.6976 12.3496L45.692 12.4556C45.8491 10.982 45.4441 9.65164 44.4862 8.53245L43.7265 9.18268ZM44.6976 12.3496L43.7033 12.2436L43.5106 14.0507L44.505 14.1567L45.4994 14.2627L45.692 12.4556L44.6976 12.3496ZM44.505 14.1567L43.5106 14.0507L43.318 15.8578L44.3123 15.9638L45.3067 16.0698L45.4994 14.2627L44.505 14.1567ZM44.3123 15.9638L43.318 15.8578C43.1886 17.0715 43.077 18.273 42.9833 19.4624L43.9802 19.5409L44.9771 19.6195C45.0694 18.4489 45.1792 17.2656 45.3067 16.0698L44.3123 15.9638ZM43.9802 19.5409L42.9833 19.4624L42.8438 21.2324L43.8407 21.3109L44.8376 21.3895L44.9771 19.6195L43.9802 19.5409ZM43.8407 21.3109L42.8438 21.2324L42.7043 23.0024L43.7012 23.0809L44.6981 23.1595L44.8376 21.3895L43.8407 21.3109ZM43.7012 23.0809L42.7043 23.0024C42.6033 24.2837 42.6961 25.5636 42.9805 26.8387L43.9565 26.6209L44.9325 26.4032C44.6905 25.3183 44.6131 24.2381 44.6981 23.1595L43.7012 23.0809ZM43.9565 26.6209L42.9805 26.8387L43.3754 28.6087L44.3514 28.3909L45.3274 28.1732L44.9325 26.4032L43.9565 26.6209ZM44.3514 28.3909L43.3754 28.6087L43.7703 30.3787L44.7463 30.1609L45.7223 29.9432L45.3274 28.1732L44.3514 28.3909ZM44.7463 30.1609L43.7703 30.3787C43.9897 31.3623 43.9137 32.3079 43.5404 33.2422L44.469 33.6132L45.3976 33.9842C45.9205 32.6755 46.0293 31.3195 45.7223 29.9432L44.7463 30.1609ZM44.469 33.6132L43.5404 33.2422L42.8682 34.9245L43.7969 35.2955L44.7255 35.6665L45.3976 33.9842L44.469 33.6132ZM43.7969 35.2955L42.8682 34.9245L42.1961 36.6067L43.1247 36.9778L44.0533 37.3488L44.7255 35.6665L43.7969 35.2955ZM43.1247 36.9778L42.1961 36.6067C41.811 37.5707 41.2372 38.3351 40.4744 38.9241L41.0855 39.7156L41.6967 40.5071C42.7566 39.6887 43.5423 38.6279 44.0533 37.3488L43.1247 36.9778ZM41.0855 39.7156L40.4744 38.9241L39.1073 39.9797L39.7185 40.7712L40.3296 41.5627L41.6967 40.5071L41.0855 39.7156ZM39.7185 40.7712L39.1073 39.9797L37.7403 41.0353L38.3514 41.8268L38.9626 42.6183L40.3296 41.5627L39.7185 40.7712ZM38.3514 41.8268L37.7403 41.0353C36.973 41.6277 36.1211 41.9727 35.1664 42.0795L35.2777 43.0733L35.3889 44.0671C36.7098 43.9193 37.9071 43.4332 38.9626 42.6183L38.3514 41.8268ZM35.2777 43.0733L35.1664 42.0795L33.4597 42.2706L33.5709 43.2644L33.6822 44.2581L35.3889 44.0671L35.2777 43.0733ZM33.5709 43.2644L33.4597 42.2706L31.753 42.4616L31.8642 43.4554L31.9755 44.4492L33.6822 44.2581L33.5709 43.2644ZM31.8642 43.4554L31.753 42.4616C30.6004 42.5906 29.4273 42.7479 28.2338 42.9336L28.3875 43.9217L28.5412 44.9098C29.7077 44.7284 30.8524 44.5748 31.9755 44.4492L31.8642 43.4554ZM28.3875 43.9217L28.2338 42.9336L26.4638 43.2089L26.6175 44.1971L26.7712 45.1852L28.5412 44.9098L28.3875 43.9217ZM26.6175 44.1971L26.4638 43.2089L24.6938 43.4843L24.8475 44.4724L25.0012 45.4605L26.7712 45.1852L26.6175 44.1971ZM24.8475 44.4724L24.6938 43.4843C23.5734 43.6586 22.4545 43.7294 21.3362 43.6973L21.3075 44.6969L21.2788 45.6965C22.5205 45.7321 23.7616 45.6533 25.0012 45.4605L24.8475 44.4724ZM21.3075 44.6969L21.3362 43.6973L19.5662 43.6465L19.5375 44.6461L19.5088 45.6456L21.2788 45.6965L21.3075 44.6969ZM19.5375 44.6461L19.5662 43.6465L17.7962 43.5956L17.7675 44.5952L17.7388 45.5948L19.5088 45.6456L19.5375 44.6461ZM17.7675 44.5952L17.7962 43.5956C16.6742 43.5634 15.5674 43.4345 14.4752 43.2092L14.2731 44.1885L14.071 45.1679C15.278 45.417 16.5009 45.5592 17.7388 45.5948L17.7675 44.5952ZM14.2731 44.1885L14.4752 43.2092L12.7508 42.8533L12.5487 43.8327L12.3466 44.8121L14.071 45.1679L14.2731 44.1885ZM12.5487 43.8327L12.7508 42.8533L11.0264 42.4975L10.8243 43.4769L10.6222 44.4562L12.3466 44.8121L12.5487 43.8327ZM10.8243 43.4769L11.0264 42.4975C10.0403 42.294 9.20827 41.8791 8.50792 41.2561L7.84331 42.0033L7.17869 42.7505C8.15383 43.6178 9.30915 44.1853 10.6222 44.4562L10.8243 43.4769ZM7.84331 42.0033L8.50792 41.2561L7.2513 40.1384L6.58669 40.8855L5.92207 41.6327L7.17869 42.7505L7.84331 42.0033ZM6.58669 40.8855L7.2513 40.1384L5.99469 39.0206L5.33007 39.7678L4.66546 40.515L5.92207 41.6327L6.58669 40.8855ZM5.33007 39.7678L5.99469 39.0206C5.2545 38.3622 4.64993 37.5725 4.18092 36.6427L3.28808 37.093L2.39524 37.5434C2.9734 38.6896 3.73016 39.683 4.66546 40.515L5.33007 39.7678ZM3.28808 37.093L4.18092 36.6427L3.39555 35.0857L2.50271 35.5361L1.60986 35.9864L2.39524 37.5434L3.28808 37.093ZM2.50271 35.5361L3.39555 35.0857L2.61017 33.5287L1.71733 33.9791L0.824487 34.4294L1.60986 35.9864L2.50271 35.5361ZM1.71733 33.9791L2.61017 33.5287C2.1648 32.6457 1.96281 31.7057 2.00525 30.6914L1.00612 30.6496L0.00699699 30.6078C-0.0494508 31.9568 0.222698 33.2364 0.824487 34.4294L1.71733 33.9791ZM1.00612 30.6496L2.00525 30.6914L2.07942 28.9189L1.08029 28.8771L0.0811647 28.8353L0.00699699 30.6078L1.00612 30.6496ZM1.08029 28.8771L2.07942 28.9189L2.15358 27.1464L1.15446 27.1046L0.155332 27.0628L0.0811647 28.8353L1.08029 28.8771ZM1.15446 27.1046L2.15358 27.1464C2.20155 26.0001 2.31022 24.8541 2.47969 23.7085L1.49045 23.5621L0.501218 23.4158C0.321585 24.6302 0.206254 25.8459 0.155332 27.0628L1.15446 27.1046ZM1.49045 23.5621L2.47969 23.7085L2.74152 21.9385L1.75228 21.7921L0.763046 21.6458L0.501218 23.4158L1.49045 23.5621ZM1.75228 21.7921L2.74152 21.9385L3.00334 20.1685L2.01411 20.0221L1.02487 19.8758L0.763046 21.6458L1.75228 21.7921ZM2.01411 20.0221L3.00334 20.1685C3.18918 18.9122 3.22779 17.6568 3.11848 16.404L2.12227 16.4909L1.12605 16.5778C1.22163 17.6733 1.18814 18.7721 1.02487 19.8758L2.01411 20.0221ZM2.12227 16.4909L3.11848 16.404L2.96481 14.6428L1.9686 14.7297L0.972382 14.8166L1.12605 16.5778L2.12227 16.4909ZM1.9686 14.7297L2.96481 14.6428L2.81114 12.8816L1.81493 12.9685L0.818712 13.0554L0.972382 14.8166L1.9686 14.7297ZM1.81493 12.9685L2.81114 12.8816C2.72344 11.8764 2.88455 10.936 3.2926 10.0426L2.38299 9.62715L1.47338 9.21168C0.91912 10.4252 0.701525 11.7123 0.818712 13.0554L1.81493 12.9685ZM2.38299 9.62715L3.2926 10.0426L4.01433 8.4625L3.10472 8.04704L2.19511 7.63157L1.47338 9.21168L2.38299 9.62715ZM3.10472 8.04704L4.01433 8.4625L4.73606 6.88239L3.82645 6.46692L2.91684 6.05145L2.19511 7.63157L3.10472 8.04704ZM3.82645 6.46692L4.73606 6.88239C5.13554 6.00778 5.74551 5.30528 6.5879 4.76295L6.04658 3.92213L5.50527 3.08131C4.34979 3.8252 3.47967 4.81923 2.91684 6.05145L3.82645 6.46692ZM6.04658 3.92213L6.5879 4.76295L8.0863 3.79828L7.54499 2.95746L7.00367 2.11664L5.50527 3.08131L6.04658 3.92213ZM7.54499 2.95746L8.0863 3.79828L9.58471 2.83361L9.04339 1.99279L8.50207 1.15197L7.00367 2.11664L7.54499 2.95746ZM9.04339 1.99279L9.58471 2.83361C10.0574 2.52927 10.4382 2.32233 10.7339 2.1963C10.8806 2.13378 10.9945 2.09632 11.0789 2.07565C11.1652 2.05454 11.2018 2.05565 11.2001 2.05558L11.2406 1.0564L11.281 0.0572197C10.83 0.0389694 10.369 0.177799 9.94983 0.35642C9.51316 0.542518 9.02828 0.813205 8.50207 1.15197L9.04339 1.99279ZM11.2406 1.0564L11.2001 2.05558L11.8989 2.08386L11.9394 1.08468L11.9798 0.0854976L11.281 0.0572197L11.2406 1.0564ZM11.9394 1.08468L11.8989 2.08386L12.5977 2.11214L12.6381 1.11296L12.6786 0.113775L11.9798 0.0854976L11.9394 1.08468ZM12.6381 1.11296L12.5977 2.11214C13.0558 2.13068 13.8724 2.17181 15.0526 2.23596L15.1069 1.23744L15.1612 0.23891C13.9814 0.174791 13.1522 0.132941 12.6786 0.113775L12.6381 1.11296ZM15.1069 1.23744L15.0526 2.23596L16.8226 2.33216L16.8769 1.33364L16.9312 0.335112L15.1612 0.23891L15.1069 1.23744Z" fill="#F3E8DF"/>
<path d="M7.53691 13.9746H38.1369C38.5878 13.9746 39.0202 13.7463 39.339 13.34C39.6578 12.9336 39.8369 12.3825 39.8369 11.8079C39.8369 11.2333 39.6578 10.6822 39.339 10.2758C39.0202 9.86951 38.5878 9.64124 38.1369 9.64124H7.53691C7.08605 9.64124 6.65364 9.86951 6.33483 10.2758C6.01602 10.6822 5.83691 11.2333 5.83691 11.8079C5.83691 12.3825 6.01602 12.9336 6.33483 13.34C6.65364 13.7463 7.08605 13.9746 7.53691 13.9746ZM38.1369 31.3079H7.53691C7.08605 31.3079 6.65364 31.5362 6.33483 31.9425C6.01602 32.3488 5.83691 32.8999 5.83691 33.4746C5.83691 34.0492 6.01602 34.6003 6.33483 35.0066C6.65364 35.413 7.08605 35.6412 7.53691 35.6412H38.1369C38.5878 35.6412 39.0202 35.413 39.339 35.0066C39.6578 34.6003 39.8369 34.0492 39.8369 33.4746C39.8369 32.8999 39.6578 32.3488 39.339 31.9425C39.0202 31.5362 38.5878 31.3079 38.1369 31.3079ZM38.1369 20.4746H7.53691C7.08605 20.4746 6.65364 20.7028 6.33483 21.1092C6.01602 21.5155 5.83691 22.0666 5.83691 22.6412C5.83691 23.2159 6.01602 23.767 6.33483 24.1733C6.65364 24.5796 7.08605 24.8079 7.53691 24.8079H38.1369C38.5878 24.8079 39.0202 24.5796 39.339 24.1733C39.6578 23.767 39.8369 23.2159 39.8369 22.6412C39.8369 22.0666 39.6578 21.5155 39.339 21.1092C39.0202 20.7028 38.5878 20.4746 38.1369 20.4746Z" fill="#452829"/>
</svg>
